# xmcd
#
# Track frame offsets: 
#        150
#        5710
#        31092
#        32602
#        52155
#        76612
#        91675
#        118600
#        142380
#        154202
#        157412
#        177305
#        191712
#        209877
#        234355
#        258640
#        286482
#
# Disc length: 4151 seconds
#
# Revision: 4
# Processed by: cddbd v1.5.2PL0 Copyright (c) Steve Scherf et al.
# Submitted via: ExactAudioCopy v0.99pb5
#
DISCID=f8103511
DTITLE=Sounds Of Blackness - Time For Healing
DYEAR=1997
DGENRE=R&B - Blues
TTITLE0=Africana
TTITLE1=Spirit
TTITLE2=We Are Gonna Make It Through (Part 1)
TTITLE3=Hold On (Change Is Comin')
TTITLE4=Love Will Never Change
TTITLE5=Love Train
TTITLE6=God Cares
TTITLE7=Hopld On (Don't Let Go)
TTITLE8=Crisis
TTITLE9=We Are Gonna Make It Through (Part 2)
TTITLE10=You Can Make It If You Try
TTITLE11=The Blackness Blues
TTITLE12=A Spiritual Medley
TTITLE13=So Far Away
TTITLE14=Familiar Waters
TTITLE15=Time For Healing
TTITLE16=We Are Gonna Make It Through (Part 3)
EXTD=
EXTT0=
EXTT1=
EXTT2=
EXTT3=
EXTT4=
EXTT5=
EXTT6=
EXTT7=
EXTT8=
EXTT9=
EXTT10=
EXTT11=
EXTT12=
EXTT13=
EXTT14=
EXTT15=
EXTT16=
PLAYORDER=
